<?xml version="1.0" encoding="utf-8" standalone="no"?>
<!DOCTYPE svg PUBLIC "-//W3C//DTD SVG 1.1//EN"
  "http://www.w3.org/Graphics/SVG/1.1/DTD/svg11.dtd">
<svg xmlns:xlink="http://www.w3.org/1999/xlink" width="936pt" height="504pt" viewBox="0 0 936 504" xmlns="http://www.w3.org/2000/svg" version="1.1">
 <metadata>
  <rdf:RDF xmlns:dc="http://purl.org/dc/elements/1.1/" xmlns:cc="http://creativecommons.org/ns#" xmlns:rdf="http://www.w3.org/1999/02/22-rdf-syntax-ns#">
   <cc:Work>
    <dc:type rdf:resource="http://purl.org/dc/dcmitype/StillImage"/>
    <dc:format>image/svg+xml</dc:format>
    <dc:creator>
     <cc:Agent>
      <dc:title>Matplotlib v3.10.3, https://matplotlib.org/</dc:title>
     </cc:Agent>
    </dc:creator>
   </cc:Work>
  </rdf:RDF>
 </metadata>
 <defs>
  <style type="text/css">*{stroke-linejoin: round; stroke-linecap: butt}</style>
 </defs>
 <g id="figure_1">
  <g id="patch_1">
   <path d="M 0 504 
L 936 504 
L 936 0 
L 0 0 
z
" style="fill: #ffffff"/>
  </g>
  <g id="axes_1">
   <g id="patch_2">
    <path d="M 205.92 317.52 
L 468 317.52 
L 468 171.36 
L 205.92 171.36 
z
" style="fill: #ffffff"/>
   </g>
   <g id="matplotlib.axis_1">
    <g id="xtick_1">
     <g id="line2d_1">
      <path d="M 205.92 317.52 
L 205.92 171.36 
" clip-path="url(#p91ee72a4e8)" style="fill: none; stroke: #e3e7ec; stroke-width: 0.8; stroke-linecap: square"/>
     </g>
     <g id="line2d_2">
      <defs>
       <path id="m1773450e4c" d="M 0 0 
L 0 3.5 
" style="stroke: #000000; stroke-width: 0.8"/>
      </defs>
      <g>
       <use xlink:href="#m1773450e4c" x="205.92" y="317.52" style="stroke: #000000; stroke-width: 0.8"/>
      </g>
     </g>
     <g id="text_1">
      <text style="font-size: 14px; font-family: 'DejaVu Sans'; text-anchor: middle" x="205.92" y="335.157812" transform="rotate(-0 205.92 335.157812)">0</text>
     </g>
    </g>
    <g id="xtick_2">
     <g id="line2d_3">
      <path d="M 249.6 317.52 
L 249.6 171.36 
" clip-path="url(#p91ee72a4e8)" style="fill: none; stroke: #e3e7ec; stroke-width: 0.8; stroke-linecap: square"/>
     </g>
     <g id="line2d_4">
      <g>
       <use xlink:href="#m1773450e4c" x="249.6" y="317.52" style="stroke: #000000; stroke-width: 0.8"/>
      </g>
     </g>
     <g id="text_2">
      <text style="font-size: 14px; font-family: 'DejaVu Sans'; text-anchor: middle" x="249.6" y="335.157812" transform="rotate(-0 249.6 335.157812)">3</text>
     </g>
    </g>
    <g id="xtick_3">
     <g id="line2d_5">
      <path d="M 293.28 317.52 
L 293.28 171.36 
" clip-path="url(#p91ee72a4e8)" style="fill: none; stroke: #e3e7ec; stroke-width: 0.8; stroke-linecap: square"/>
     </g>
     <g id="line2d_6">
      <g>
       <use xlink:href="#m1773450e4c" x="293.28" y="317.52" style="stroke: #000000; stroke-width: 0.8"/>
      </g>
     </g>
     <g id="text_3">
      <text style="font-size: 14px; font-family: 'DejaVu Sans'; text-anchor: middle" x="293.28" y="335.157812" transform="rotate(-0 293.28 335.157812)">6</text>
     </g>
    </g>
    <g id="xtick_4">
     <g id="line2d_7">
      <path d="M 336.96 317.52 
L 336.96 171.36 
" clip-path="url(#p91ee72a4e8)" style="fill: none; stroke: #e3e7ec; stroke-width: 0.8; stroke-linecap: square"/>
     </g>
     <g id="line2d_8">
      <g>
       <use xlink:href="#m1773450e4c" x="336.96" y="317.52" style="stroke: #000000; stroke-width: 0.8"/>
      </g>
     </g>
     <g id="text_4">
      <text style="font-size: 14px; font-family: 'DejaVu Sans'; text-anchor: middle" x="336.96" y="335.157812" transform="rotate(-0 336.96 335.157812)">9</text>
     </g>
    </g>
    <g id="xtick_5">
     <g id="line2d_9">
      <path d="M 380.64 317.52 
L 380.64 171.36 
" clip-path="url(#p91ee72a4e8)" style="fill: none; stroke: #e3e7ec; stroke-width: 0.8; stroke-linecap: square"/>
     </g>
     <g id="line2d_10">
      <g>
       <use xlink:href="#m1773450e4c" x="380.64" y="317.52" style="stroke: #000000; stroke-width: 0.8"/>
      </g>
     </g>
     <g id="text_5">
      <text style="font-size: 14px; font-family: 'DejaVu Sans'; text-anchor: middle" x="380.64" y="335.157812" transform="rotate(-0 380.64 335.157812)">12</text>
     </g>
    </g>
    <g id="xtick_6">
     <g id="line2d_11">
      <path d="M 424.32 317.52 
L 424.32 171.36 
" clip-path="url(#p91ee72a4e8)" style="fill: none; stroke: #e3e7ec; stroke-width: 0.8; stroke-linecap: square"/>
     </g>
     <g id="line2d_12">
      <g>
       <use xlink:href="#m1773450e4c" x="424.32" y="317.52" style="stroke: #000000; stroke-width: 0.8"/>
      </g>
     </g>
     <g id="text_6">
      <text style="font-size: 14px; font-family: 'DejaVu Sans'; text-anchor: middle" x="424.32" y="335.157812" transform="rotate(-0 424.32 335.157812)">15</text>
     </g>
    </g>
    <g id="xtick_7">
     <g id="line2d_13">
      <path d="M 468 317.52 
L 468 171.36 
" clip-path="url(#p91ee72a4e8)" style="fill: none; stroke: #e3e7ec; stroke-width: 0.8; stroke-linecap: square"/>
     </g>
     <g id="line2d_14">
      <g>
       <use xlink:href="#m1773450e4c" x="468" y="317.52" style="stroke: #000000; stroke-width: 0.8"/>
      </g>
     </g>
     <g id="text_7">
      <text style="font-size: 14px; font-family: 'DejaVu Sans'; text-anchor: middle" x="468" y="335.157812" transform="rotate(-0 468 335.157812)">18</text>
     </g>
    </g>
    <g id="text_8">
     <text style="font-size: 14px; font-family: 'DejaVu Sans'; text-anchor: middle" x="336.96" y="358.707188" transform="rotate(-0 336.96 358.707188)">Count</text>
    </g>
   </g>
   <g id="matplotlib.axis_2">
    <g id="ytick_1">
     <g id="line2d_15"/>
     <g id="text_9">
      <text style="font-size: 14px; font-family: 'DejaVu Sans'; text-anchor: end" x="193.92" y="217.984993" transform="rotate(-0 193.92 217.984993)">File identity</text>
     </g>
    </g>
    <g id="ytick_2">
     <g id="line2d_16"/>
     <g id="text_10">
      <text style="font-size: 14px; font-family: 'DejaVu Sans'; text-anchor: end" x="193.92" y="281.532819" transform="rotate(-0 193.92 281.532819)">Static ranges</text>
     </g>
    </g>
   </g>
   <g id="patch_3">
    <path d="M 205.92 317.52 
L 205.92 171.36 
" style="fill: none; stroke: #68717e; stroke-width: 0.8; stroke-linejoin: miter; stroke-linecap: square"/>
   </g>
   <g id="patch_4">
    <path d="M 205.92 317.52 
L 468 317.52 
" style="fill: none; stroke: #68717e; stroke-width: 0.8; stroke-linejoin: miter; stroke-linecap: square"/>
   </g>
   <g id="patch_5">
    <path d="M 205.92 199.321043 
L 336.96 199.321043 
L 336.96 226.01113 
L 205.92 226.01113 
z
" clip-path="url(#p91ee72a4e8)" style="fill: #2864b0"/>
   </g>
   <g id="patch_6">
    <path d="M 205.92 262.86887 
L 424.32 262.86887 
L 424.32 289.558957 
L 205.92 289.558957 
z
" clip-path="url(#p91ee72a4e8)" style="fill: #2864b0"/>
   </g>
   <g id="text_11">
    <text style="font-weight: 700; font-size: 14px; font-family: 'DejaVu Sans'; text-anchor: start; fill: #233247" x="342.784" y="216.529212" transform="rotate(-0 342.784 216.529212)">9 / 9</text>
   </g>
   <g id="text_12">
    <text style="font-weight: 700; font-size: 14px; font-family: 'DejaVu Sans'; text-anchor: start; fill: #233247" x="430.144" y="280.077038" transform="rotate(-0 430.144 280.077038)">15 / 15</text>
   </g>
   <g id="text_13">
    <text style="font-weight: 700; font-size: 16.8px; font-family: 'DejaVu Sans'; text-anchor: middle" x="336.96" y="155.36" transform="rotate(-0 336.96 155.36)">Groups passing checks</text>
   </g>
  </g>
  <g id="axes_2">
   <g id="patch_7">
    <path d="M 599.04 317.52 
L 879.84 317.52 
L 879.84 171.36 
L 599.04 171.36 
z
" style="fill: #ffffff"/>
   </g>
   <g id="matplotlib.axis_3">
    <g id="xtick_8">
     <g id="line2d_17">
      <path d="M 599.04 317.52 
L 599.04 171.36 
" clip-path="url(#p5cecc4f811)" style="fill: none; stroke: #e3e7ec; stroke-width: 0.8; stroke-linecap: square"/>
     </g>
     <g id="line2d_18">
      <g>
       <use xlink:href="#m1773450e4c" x="599.04" y="317.52" style="stroke: #000000; stroke-width: 0.8"/>
      </g>
     </g>
     <g id="text_14">
      <text style="font-size: 14px; font-family: 'DejaVu Sans'; text-anchor: middle" x="599.04" y="335.157812" transform="rotate(-0 599.04 335.157812)">0</text>
     </g>
    </g>
    <g id="xtick_9">
     <g id="line2d_19">
      <path d="M 645.84 317.52 
L 645.84 171.36 
" clip-path="url(#p5cecc4f811)" style="fill: none; stroke: #e3e7ec; stroke-width: 0.8; stroke-linecap: square"/>
     </g>
     <g id="line2d_20">
      <g>
       <use xlink:href="#m1773450e4c" x="645.84" y="317.52" style="stroke: #000000; stroke-width: 0.8"/>
      </g>
     </g>
     <g id="text_15">
      <text style="font-size: 14px; font-family: 'DejaVu Sans'; text-anchor: middle" x="645.84" y="335.157812" transform="rotate(-0 645.84 335.157812)">3</text>
     </g>
    </g>
    <g id="xtick_10">
     <g id="line2d_21">
      <path d="M 692.64 317.52 
L 692.64 171.36 
" clip-path="url(#p5cecc4f811)" style="fill: none; stroke: #e3e7ec; stroke-width: 0.8; stroke-linecap: square"/>
     </g>
     <g id="line2d_22">
      <g>
       <use xlink:href="#m1773450e4c" x="692.64" y="317.52" style="stroke: #000000; stroke-width: 0.8"/>
      </g>
     </g>
     <g id="text_16">
      <text style="font-size: 14px; font-family: 'DejaVu Sans'; text-anchor: middle" x="692.64" y="335.157812" transform="rotate(-0 692.64 335.157812)">6</text>
     </g>
    </g>
    <g id="xtick_11">
     <g id="line2d_23">
      <path d="M 739.44 317.52 
L 739.44 171.36 
" clip-path="url(#p5cecc4f811)" style="fill: none; stroke: #e3e7ec; stroke-width: 0.8; stroke-linecap: square"/>
     </g>
     <g id="line2d_24">
      <g>
       <use xlink:href="#m1773450e4c" x="739.44" y="317.52" style="stroke: #000000; stroke-width: 0.8"/>
      </g>
     </g>
     <g id="text_17">
      <text style="font-size: 14px; font-family: 'DejaVu Sans'; text-anchor: middle" x="739.44" y="335.157812" transform="rotate(-0 739.44 335.157812)">9</text>
     </g>
    </g>
    <g id="xtick_12">
     <g id="line2d_25">
      <path d="M 786.24 317.52 
L 786.24 171.36 
" clip-path="url(#p5cecc4f811)" style="fill: none; stroke: #e3e7ec; stroke-width: 0.8; stroke-linecap: square"/>
     </g>
     <g id="line2d_26">
      <g>
       <use xlink:href="#m1773450e4c" x="786.24" y="317.52" style="stroke: #000000; stroke-width: 0.8"/>
      </g>
     </g>
     <g id="text_18">
      <text style="font-size: 14px; font-family: 'DejaVu Sans'; text-anchor: middle" x="786.24" y="335.157812" transform="rotate(-0 786.24 335.157812)">12</text>
     </g>
    </g>
    <g id="xtick_13">
     <g id="line2d_27">
      <path d="M 833.04 317.52 
L 833.04 171.36 
" clip-path="url(#p5cecc4f811)" style="fill: none; stroke: #e3e7ec; stroke-width: 0.8; stroke-linecap: square"/>
     </g>
     <g id="line2d_28">
      <g>
       <use xlink:href="#m1773450e4c" x="833.04" y="317.52" style="stroke: #000000; stroke-width: 0.8"/>
      </g>
     </g>
     <g id="text_19">
      <text style="font-size: 14px; font-family: 'DejaVu Sans'; text-anchor: middle" x="833.04" y="335.157812" transform="rotate(-0 833.04 335.157812)">15</text>
     </g>
    </g>
    <g id="xtick_14">
     <g id="line2d_29">
      <path d="M 879.84 317.52 
L 879.84 171.36 
" clip-path="url(#p5cecc4f811)" style="fill: none; stroke: #e3e7ec; stroke-width: 0.8; stroke-linecap: square"/>
     </g>
     <g id="line2d_30">
      <g>
       <use xlink:href="#m1773450e4c" x="879.84" y="317.52" style="stroke: #000000; stroke-width: 0.8"/>
      </g>
     </g>
     <g id="text_20">
      <text style="font-size: 14px; font-family: 'DejaVu Sans'; text-anchor: middle" x="879.84" y="335.157812" transform="rotate(-0 879.84 335.157812)">18</text>
     </g>
    </g>
    <g id="text_21">
     <text style="font-size: 14px; font-family: 'DejaVu Sans'; text-anchor: middle" x="739.44" y="358.707188" transform="rotate(-0 739.44 358.707188)">Count</text>
    </g>
   </g>
   <g id="matplotlib.axis_4">
    <g id="ytick_3">
     <g id="line2d_31"/>
    </g>
    <g id="ytick_4">
     <g id="line2d_32"/>
    </g>
   </g>
   <g id="patch_8">
    <path d="M 599.04 317.52 
L 599.04 171.36 
" style="fill: none; stroke: #68717e; stroke-width: 0.8; stroke-linejoin: miter; stroke-linecap: square"/>
   </g>
   <g id="patch_9">
    <path d="M 599.04 317.52 
L 879.84 317.52 
" style="fill: none; stroke: #68717e; stroke-width: 0.8; stroke-linejoin: miter; stroke-linecap: square"/>
   </g>
   <g id="patch_10">
    <path d="M 599.04 199.321043 
L 630.24 199.321043 
L 630.24 226.01113 
L 599.04 226.01113 
z
" clip-path="url(#p5cecc4f811)" style="fill: #2864b0"/>
   </g>
   <g id="patch_11">
    <path d="M 599.04 262.86887 
L 630.24 262.86887 
L 630.24 289.558957 
L 599.04 289.558957 
z
" clip-path="url(#p5cecc4f811)" style="fill: #2864b0"/>
   </g>
   <g id="patch_12">
    <path d="M 630.24 199.321043 
L 817.44 199.321043 
L 817.44 226.01113 
L 630.24 226.01113 
z
" clip-path="url(#p5cecc4f811)" style="fill: url(#h5654a18acc)"/>
   </g>
   <g id="patch_13">
    <path d="M 630.24 262.86887 
L 833.04 262.86887 
L 833.04 289.558957 
L 630.24 289.558957 
z
" clip-path="url(#p5cecc4f811)" style="fill: url(#h5654a18acc)"/>
   </g>
   <g id="text_22">
    <text style="font-weight: 700; font-size: 14px; font-family: 'DejaVu Sans'; text-anchor: middle; fill: #ffffff" x="614.64" y="216.529212" transform="rotate(-0 614.64 216.529212)">2</text>
   </g>
   <g id="text_23">
    <text style="font-weight: 700; font-size: 14px; font-family: 'DejaVu Sans'; text-anchor: middle; fill: #ffffff" x="723.84" y="216.529212" transform="rotate(-0 723.84 216.529212)">12</text>
   </g>
   <g id="text_24">
    <text style="font-weight: 700; font-size: 14px; font-family: 'DejaVu Sans'; text-anchor: middle; fill: #ffffff" x="614.64" y="280.077038" transform="rotate(-0 614.64 280.077038)">2</text>
   </g>
   <g id="text_25">
    <text style="font-weight: 700; font-size: 14px; font-family: 'DejaVu Sans'; text-anchor: middle; fill: #ffffff" x="731.64" y="280.077038" transform="rotate(-0 731.64 280.077038)">13</text>
   </g>
   <g id="text_26">
    <text style="font-weight: 700; font-size: 14px; font-family: 'DejaVu Sans'; text-anchor: start; fill: #233247" x="823.68" y="216.529212" transform="rotate(-0 823.68 216.529212)">14</text>
   </g>
   <g id="text_27">
    <text style="font-weight: 700; font-size: 14px; font-family: 'DejaVu Sans'; text-anchor: start; fill: #233247" x="839.28" y="280.077038" transform="rotate(-0 839.28 280.077038)">15</text>
   </g>
   <g id="text_28">
    <text style="font-weight: 700; font-size: 16.8px; font-family: 'DejaVu Sans'; text-anchor: middle" x="739.44" y="155.36" transform="rotate(-0 739.44 155.36)">Controlled API entries</text>
   </g>
   <g id="legend_1">
    <g id="patch_14">
     <path d="M 611.191172 386.934281 
L 633.191172 386.934281 
L 633.191172 379.234281 
L 611.191172 379.234281 
z
" style="fill: #2864b0"/>
    </g>
    <g id="text_29">
     <text style="font-size: 11px; font-family: 'DejaVu Sans'; text-anchor: start" x="641.991172" y="386.934281" transform="rotate(-0 641.991172 386.934281)">Accepted input</text>
    </g>
    <g id="patch_15">
     <path d="M 747.025703 386.934281 
L 769.025703 386.934281 
L 769.025703 379.234281 
L 747.025703 379.234281 
z
" style="fill: url(#h5654a18acc)"/>
    </g>
    <g id="text_30">
     <text style="font-size: 11px; font-family: 'DejaVu Sans'; text-anchor: start" x="777.825703" y="386.934281" transform="rotate(-0 777.825703 386.934281)">Required refusal</text>
    </g>
   </g>
  </g>
  <g id="text_31">
   <text style="font-weight: 700; font-size: 26px; font-family: 'DejaVu Sans'; text-anchor: start; fill: #172b46" x="56.16" y="47.88" transform="rotate(-0 56.16 47.88)">File identity and static range verification</text>
  </g>
  <g id="text_32">
   <text style="font-size: 16px; font-family: 'DejaVu Sans'; text-anchor: start; fill: #4e5661" x="56.16" y="73.08" transform="rotate(-0 56.16 73.08)">24 groups passed · 29 controlled API entries · one invocation</text>
  </g>
  <g id="text_33">
   <text style="font-size: 13px; font-family: 'DejaVu Sans'; text-anchor: start; fill: #4e5661" x="56.16" y="103.32" transform="rotate(-0 56.16 103.32)">4 accepted inputs and 25 required refusals; exact pre-run stdout matched.</text>
  </g>
  <g id="text_34">
   <text style="font-weight: 700; font-size: 14px; font-family: 'DejaVu Sans'; text-anchor: start; fill: #172b46" x="56.16" y="423.36" transform="rotate(-0 56.16 423.36)">Development verification only · Phase 5 NOT_ACCEPTED</text>
  </g>
  <g id="text_35">
   <text style="font-size: 12px; font-family: 'DejaVu Sans'; text-anchor: start; fill: #4e5661" x="56.16" y="446.04" transform="rotate(-0 56.16 446.04)">All fixed groups included. Entries are not IO / getter / native calls or independent experiments.</text>
  </g>
  <g id="text_36">
   <text style="font-size: 12px; font-family: 'DejaVu Sans'; text-anchor: start; fill: #4e5661" x="56.16" y="464.688" transform="rotate(-0 56.16 464.688)">Synthetic fixtures; no physical admission, robot motion, controller performance or RSS evidence.</text>
  </g>
  <g id="text_37">
   <text style="font-size: 10px; font-family: 'DejaVu Sans'; text-anchor: start; fill: #68717e" x="56.16" y="485.856" transform="rotate(-0 56.16 485.856)">Binary SHA-256: 367bed8cb810afd9…   Stdout SHA-256: c1076d9df9c778e5…</text>
  </g>
 </g>
 <defs>
  <clipPath id="p91ee72a4e8">
   <rect x="205.92" y="171.36" width="262.08" height="146.16"/>
  </clipPath>
  <clipPath id="p5cecc4f811">
   <rect x="599.04" y="171.36" width="280.8" height="146.16"/>
  </clipPath>
 </defs>
 <defs>
  <pattern id="h5654a18acc" patternUnits="userSpaceOnUse" x="0" y="0" width="72" height="72">
   <rect x="0" y="0" width="73" height="73" fill="#667180"/>
   <path d="M -36 36 
L 36 -36 
M -32 40 
L 40 -32 
M -28 44 
L 44 -28 
M -24 48 
L 48 -24 
M -20 52 
L 52 -20 
M -16 56 
L 56 -16 
M -12 60 
L 60 -12 
M -8 64 
L 64 -8 
M -4 68 
L 68 -4 
M 0 72 
L 72 0 
M 4 76 
L 76 4 
M 8 80 
L 80 8 
M 12 84 
L 84 12 
M 16 88 
L 88 16 
M 20 92 
L 92 20 
M 24 96 
L 96 24 
M 28 100 
L 100 28 
M 32 104 
L 104 32 
M 36 108 
L 108 36 
" style="fill: #000000; stroke: #000000; stroke-width: 1.0; stroke-linecap: butt; stroke-linejoin: miter"/>
  </pattern>
 </defs>
</svg>
